<svg xmlns="http://www.w3.org/2000/svg" xmlns:xlink="http://www.w3.org/1999/xlink" width="1280" zoomAndPan="magnify" viewBox="0 0 960 479.999983" height="640" preserveAspectRatio="xMidYMid meet" version="1.2"><defs><clipPath id="566394f46d"><path d="M 816.898438 129.359375 L 835.1875 129.359375 L 835.1875 147.648438 L 816.898438 147.648438 Z M 816.898438 129.359375 "/></clipPath><clipPath id="3839fcd055"><path d="M 826.042969 129.359375 C 820.992188 129.359375 816.898438 133.453125 816.898438 138.503906 C 816.898438 143.554688 820.992188 147.648438 826.042969 147.648438 C 831.09375 147.648438 835.1875 143.554688 835.1875 138.503906 C 835.1875 133.453125 831.09375 129.359375 826.042969 129.359375 Z M 826.042969 129.359375 "/></clipPath><clipPath id="e9d341fe22"><path d="M 106 74 L 197 74 L 197 159 L 106 159 Z M 106 74 "/></clipPath><clipPath id="7758f4c91e"><path d="M 125.78125 62.390625 L 207.753906 95.75 L 176.375 172.859375 L 94.402344 139.503906 Z M 125.78125 62.390625 "/></clipPath><clipPath id="a5c3f5d577"><path d="M 125.78125 62.390625 L 207.753906 95.75 L 176.375 172.859375 L 94.402344 139.503906 Z M 125.78125 62.390625 "/></clipPath><clipPath id="2d91f794df"><path d="M 107 163.648438 L 195 163.648438 L 195 246.898438 L 107 246.898438 Z M 107 163.648438 "/></clipPath><clipPath id="3e44d5146b"><path d="M 106 250 L 192 250 L 192 341 L 106 341 Z M 106 250 "/></clipPath><clipPath id="b60a7a3267"><path d="M 91.019531 306.34375 L 143.828125 235.324219 L 210.632812 284.996094 L 157.828125 356.015625 Z M 91.019531 306.34375 "/></clipPath><clipPath id="5bdca086fb"><path d="M 91.019531 306.34375 L 143.828125 235.324219 L 210.632812 284.996094 L 157.828125 356.015625 Z M 91.019531 306.34375 "/></clipPath><clipPath id="d96f1608d4"><path d="M 198 161 L 286 161 L 286 247 L 198 247 Z M 198 161 "/></clipPath><clipPath id="ae75b373c3"><path d="M 260.273438 147.5625 L 298.601562 227.335938 L 223.5625 263.386719 L 185.234375 183.617188 Z M 260.273438 147.5625 "/></clipPath><clipPath id="967a58e5ba"><path d="M 260.273438 147.5625 L 298.601562 227.335938 L 223.5625 263.386719 L 185.234375 183.617188 Z M 260.273438 147.5625 "/></clipPath><clipPath id="1e54496fbb"><path d="M 15 164 L 104 164 L 104 250 L 15 250 Z M 15 164 "/></clipPath><clipPath id="55774db447"><path d="M 52.949219 265.847656 L -0.128906 195.03125 L 66.484375 145.101562 L 119.5625 215.917969 Z M 52.949219 265.847656 "/></clipPath><clipPath id="6ea54ce00f"><path d="M 52.949219 265.847656 L -0.128906 195.03125 L 66.484375 145.101562 L 119.5625 215.917969 Z M 52.949219 265.847656 "/></clipPath><clipPath id="3ef0e299e4"><path d="M 197 250 L 284 250 L 284 339 L 197 339 Z M 197 250 "/></clipPath><clipPath id="6be4776fe3"><path d="M 298.503906 306.726562 L 223.117188 353.085938 L 179.511719 282.171875 L 254.898438 235.8125 Z M 298.503906 306.726562 "/></clipPath><clipPath id="1ddf37eafe"><path d="M 298.503906 306.726562 L 223.117188 353.085938 L 179.511719 282.171875 L 254.898438 235.8125 Z M 298.503906 306.726562 "/></clipPath></defs><g id="defdc4dd10"><g style="fill:#333333;fill-opacity:1;"><g transform="translate(301.802466, 243.777885)"><path style="stroke:none" d="M 12.90625 0 C 11.226562 0 9.769531 -0.570312 8.53125 -1.71875 C 7.300781 -2.863281 6.6875 -4.273438 6.6875 -5.953125 L 6.6875 -44.796875 C 6.6875 -50.515625 7.707031 -55.960938 9.75 -61.140625 C 11.800781 -66.316406 14.691406 -70.859375 18.421875 -74.765625 C 22.148438 -78.679688 26.523438 -81.722656 31.546875 -83.890625 C 36.578125 -86.054688 41.953125 -87.140625 47.671875 -87.140625 C 53.398438 -87.140625 58.757812 -86.054688 63.75 -83.890625 C 68.75 -81.722656 73.113281 -78.710938 76.84375 -74.859375 C 80.519531 -70.941406 83.363281 -66.410156 85.375 -61.265625 C 87.394531 -56.117188 88.40625 -50.65625 88.40625 -44.875 L 88.40625 -5.953125 C 88.40625 -4.210938 87.847656 -2.785156 86.734375 -1.671875 C 85.617188 -0.554688 84.1875 0 82.4375 0 C 80.757812 0 79.332031 -0.554688 78.15625 -1.671875 C 76.976562 -2.785156 76.390625 -4.210938 76.390625 -5.953125 L 76.390625 -44.421875 C 76.390625 -48.578125 75.679688 -52.519531 74.265625 -56.25 C 72.859375 -59.988281 70.890625 -63.242188 68.359375 -66.015625 C 65.710938 -68.835938 62.625 -71.03125 59.09375 -72.59375 C 55.570312 -74.164062 51.765625 -74.953125 47.671875 -74.953125 C 43.578125 -74.953125 39.769531 -74.179688 36.25 -72.640625 C 32.726562 -71.109375 29.644531 -68.957031 27 -66.1875 C 24.414062 -63.476562 22.398438 -60.257812 20.953125 -56.53125 C 19.503906 -52.800781 18.78125 -48.859375 18.78125 -44.703125 L 18.78125 -5.953125 C 18.78125 -4.210938 18.238281 -2.785156 17.15625 -1.671875 C 16.070312 -0.554688 14.65625 0 12.90625 0 Z M 12.90625 0 "/></g></g><g style="fill:#333333;fill-opacity:1;"><g transform="translate(399.235093, 243.777885)"><path style="stroke:none" d="M 49.390625 1.078125 C 43.609375 1.078125 38.203125 -0.0195312 33.171875 -2.21875 C 28.148438 -4.414062 23.742188 -7.46875 19.953125 -11.375 C 16.160156 -15.226562 13.222656 -19.726562 11.140625 -24.875 C 9.066406 -30.019531 8.03125 -35.453125 8.03125 -41.171875 L 8.03125 -81.265625 C 8.03125 -83.015625 8.617188 -84.460938 9.796875 -85.609375 C 10.972656 -86.753906 12.375 -87.328125 14 -87.328125 C 15.6875 -87.328125 17.113281 -86.753906 18.28125 -85.609375 C 19.457031 -84.460938 20.046875 -83.015625 20.046875 -81.265625 L 20.046875 -41.171875 C 20.046875 -37.078125 20.796875 -33.191406 22.296875 -29.515625 C 23.804688 -25.847656 25.882812 -22.628906 28.53125 -19.859375 C 31.1875 -17.035156 34.300781 -14.835938 37.875 -13.265625 C 41.457031 -11.703125 45.296875 -10.921875 49.390625 -10.921875 C 53.484375 -10.921875 57.257812 -11.703125 60.71875 -13.265625 C 64.1875 -14.835938 67.15625 -17.035156 69.625 -19.859375 C 72.09375 -22.628906 73.988281 -25.847656 75.3125 -29.515625 C 76.632812 -33.191406 77.296875 -37.109375 77.296875 -41.265625 L 77.296875 -81.265625 C 77.296875 -83.015625 77.894531 -84.472656 79.09375 -85.640625 C 80.300781 -86.816406 81.75 -87.40625 83.4375 -87.40625 C 85.125 -87.40625 86.539062 -86.816406 87.6875 -85.640625 C 88.832031 -84.472656 89.40625 -83.015625 89.40625 -81.265625 L 89.40625 -41 C 89.40625 -35.28125 88.425781 -29.859375 86.46875 -24.734375 C 84.507812 -19.617188 81.722656 -15.132812 78.109375 -11.28125 C 74.441406 -7.375 70.15625 -4.335938 65.25 -2.171875 C 60.34375 -0.00390625 55.054688 1.078125 49.390625 1.078125 Z M 49.390625 1.078125 "/></g></g><g style="fill:#333333;fill-opacity:1;"><g transform="translate(496.667719, 243.777885)"><path style="stroke:none" d="M 14.71875 0 C 13.03125 0 11.597656 -0.570312 10.421875 -1.71875 C 9.253906 -2.863281 8.671875 -4.304688 8.671875 -6.046875 L 8.671875 -59.140625 C 8.671875 -62.992188 9.390625 -66.632812 10.828125 -70.0625 C 12.273438 -73.5 14.328125 -76.539062 16.984375 -79.1875 C 19.628906 -81.84375 22.648438 -83.890625 26.046875 -85.328125 C 29.453125 -86.773438 33.082031 -87.5 36.9375 -87.5 C 41.332031 -87.5 45.46875 -86.519531 49.34375 -84.5625 C 53.226562 -82.601562 56.554688 -79.941406 59.328125 -76.578125 C 61.972656 -79.941406 65.238281 -82.601562 69.125 -84.5625 C 73.007812 -86.519531 77.148438 -87.5 81.546875 -87.5 C 85.335938 -87.5 88.992188 -86.773438 92.515625 -85.328125 C 96.035156 -83.890625 99.117188 -81.875 101.765625 -79.28125 C 104.472656 -76.632812 106.578125 -73.59375 108.078125 -70.15625 C 109.585938 -66.726562 110.34375 -63.085938 110.34375 -59.234375 L 110.34375 -6.046875 C 110.34375 -4.304688 109.738281 -2.863281 108.53125 -1.71875 C 107.332031 -0.570312 105.921875 0 104.296875 0 C 102.609375 0 101.175781 -0.570312 100 -1.71875 C 98.832031 -2.863281 98.25 -4.304688 98.25 -6.046875 L 98.25 -58.25 C 98.25 -60.414062 97.828125 -62.535156 96.984375 -64.609375 C 96.140625 -66.679688 94.96875 -68.503906 93.46875 -70.078125 C 90.332031 -73.390625 86.382812 -75.046875 81.625 -75.046875 C 77.351562 -75.046875 73.65625 -73.539062 70.53125 -70.53125 C 67.457031 -67.457031 65.769531 -63.8125 65.46875 -59.59375 C 65.46875 -59.351562 65.5 -59.203125 65.5625 -59.140625 L 65.5625 -6.140625 C 65.5625 -4.453125 64.957031 -3.019531 63.75 -1.84375 C 62.550781 -0.675781 61.140625 -0.09375 59.515625 -0.09375 C 57.828125 -0.09375 56.410156 -0.675781 55.265625 -1.84375 C 54.117188 -3.019531 53.546875 -4.453125 53.546875 -6.140625 L 53.546875 -58.15625 C 53.546875 -62.664062 51.984375 -66.640625 48.859375 -70.078125 C 45.785156 -73.441406 41.898438 -75.125 37.203125 -75.125 C 35.097656 -75.125 33.097656 -74.734375 31.203125 -73.953125 C 29.304688 -73.171875 27.601562 -72.085938 26.09375 -70.703125 C 24.65625 -69.316406 23.46875 -67.691406 22.53125 -65.828125 C 21.59375 -63.960938 21.035156 -62.035156 20.859375 -60.046875 C 20.859375 -59.804688 20.890625 -59.65625 20.953125 -59.59375 L 20.953125 -59.0625 L 20.765625 -6.046875 C 20.703125 -4.304688 20.082031 -2.863281 18.90625 -1.71875 C 17.738281 -0.570312 16.34375 0 14.71875 0 Z M 14.71875 0 "/></g></g><g style="fill:#333333;fill-opacity:1;"><g transform="translate(614.417605, 243.777885)"><path style="stroke:none" d="M 48.125 1.078125 C 42.164062 1.078125 36.492188 -0.0625 31.109375 -2.34375 C 25.722656 -4.632812 21.015625 -7.796875 16.984375 -11.828125 C 12.890625 -15.859375 9.695312 -20.566406 7.40625 -25.953125 C 5.113281 -31.347656 3.96875 -37.023438 3.96875 -42.984375 C 3.96875 -48.941406 5.113281 -54.613281 7.40625 -60 C 9.695312 -65.394531 12.890625 -70.140625 16.984375 -74.234375 C 21.015625 -78.265625 25.722656 -81.421875 31.109375 -83.703125 C 36.492188 -85.992188 42.164062 -87.140625 48.125 -87.140625 C 54.03125 -87.140625 59.675781 -85.992188 65.0625 -83.703125 C 70.445312 -81.421875 75.1875 -78.265625 79.28125 -74.234375 C 83.3125 -70.191406 86.484375 -65.492188 88.796875 -60.140625 C 91.117188 -54.785156 92.3125 -49.15625 92.375 -43.25 C 92.375 -41.625 91.832031 -40.253906 90.75 -39.140625 C 89.664062 -38.023438 88.253906 -37.46875 86.515625 -37.46875 L 17.34375 -37.46875 C 17.820312 -33.738281 18.945312 -30.234375 20.71875 -26.953125 C 22.5 -23.671875 24.773438 -20.796875 27.546875 -18.328125 C 30.367188 -15.859375 33.539062 -13.929688 37.0625 -12.546875 C 40.582031 -11.160156 44.269531 -10.46875 48.125 -10.46875 C 51.675781 -10.46875 54.628906 -10.800781 56.984375 -11.46875 C 58.003906 -11.769531 59.113281 -12.175781 60.3125 -12.6875 C 61.519531 -13.195312 62.816406 -13.84375 64.203125 -14.625 C 65.410156 -15.351562 66.644531 -15.71875 67.90625 -15.71875 C 69.53125 -15.71875 70.914062 -15.066406 72.0625 -13.765625 C 73.207031 -12.472656 73.78125 -11.015625 73.78125 -9.390625 C 73.78125 -7.222656 72.816406 -5.597656 70.890625 -4.515625 C 67.453125 -2.585938 64.171875 -1.203125 61.046875 -0.359375 C 57.253906 0.597656 52.945312 1.078125 48.125 1.078125 Z M 16.984375 -47.59375 L 80.09375 -47.59375 C 79.070312 -55.71875 75.613281 -62.367188 69.71875 -67.546875 C 66.820312 -70.078125 63.535156 -72.046875 59.859375 -73.453125 C 56.191406 -74.867188 52.34375 -75.578125 48.3125 -75.578125 C 44.21875 -75.578125 40.347656 -74.851562 36.703125 -73.40625 C 33.066406 -71.96875 29.832031 -69.953125 27 -67.359375 C 24.226562 -64.835938 21.96875 -61.859375 20.21875 -58.421875 C 18.476562 -54.992188 17.398438 -51.382812 16.984375 -47.59375 Z M 16.984375 -47.59375 "/></g></g><g style="fill:#333333;fill-opacity:1;"><g transform="translate(710.676331, 243.777885)"><path style="stroke:none" d="M 48.046875 1.078125 C 42.078125 1.078125 36.429688 -0.046875 31.109375 -2.296875 C 25.785156 -4.554688 21.078125 -7.734375 16.984375 -11.828125 C 12.890625 -15.859375 9.695312 -20.550781 7.40625 -25.90625 C 5.113281 -31.269531 3.96875 -36.929688 3.96875 -42.890625 C 3.96875 -48.910156 5.113281 -54.628906 7.40625 -60.046875 C 9.695312 -65.460938 12.890625 -70.191406 16.984375 -74.234375 C 21.078125 -78.328125 25.785156 -81.5 31.109375 -83.75 C 36.429688 -86.007812 42.078125 -87.140625 48.046875 -87.140625 C 55.867188 -87.140625 62.394531 -85.378906 67.625 -81.859375 C 72.863281 -78.335938 77.019531 -73.296875 80.09375 -66.734375 L 80.09375 -112.515625 C 80.09375 -114.316406 80.648438 -115.804688 81.765625 -116.984375 C 82.878906 -118.160156 84.3125 -118.75 86.0625 -118.75 C 87.738281 -118.75 89.164062 -118.144531 90.34375 -116.9375 C 91.519531 -115.738281 92.109375 -114.265625 92.109375 -112.515625 L 92.109375 -42.34375 C 92.046875 -36.507812 90.867188 -30.925781 88.578125 -25.59375 C 86.296875 -20.269531 83.140625 -15.625 79.109375 -11.65625 C 75.066406 -7.613281 70.367188 -4.476562 65.015625 -2.25 C 59.660156 -0.03125 54.003906 1.078125 48.046875 1.078125 Z M 48.046875 -10.921875 C 52.492188 -10.921875 56.675781 -11.75 60.59375 -13.40625 C 64.507812 -15.0625 67.941406 -17.394531 70.890625 -20.40625 C 73.773438 -23.351562 76.03125 -26.769531 77.65625 -30.65625 C 79.28125 -34.539062 80.09375 -38.617188 80.09375 -42.890625 C 80.09375 -47.222656 79.28125 -51.347656 77.65625 -55.265625 C 76.03125 -59.179688 73.773438 -62.613281 70.890625 -65.5625 C 67.941406 -68.507812 64.492188 -70.8125 60.546875 -72.46875 C 56.597656 -74.125 52.429688 -74.953125 48.046875 -74.953125 C 43.648438 -74.953125 39.507812 -74.125 35.625 -72.46875 C 31.738281 -70.8125 28.320312 -68.507812 25.375 -65.5625 C 22.425781 -62.613281 20.125 -59.179688 18.46875 -55.265625 C 16.8125 -51.347656 15.984375 -47.222656 15.984375 -42.890625 C 15.984375 -38.617188 16.8125 -34.539062 18.46875 -30.65625 C 20.125 -26.769531 22.425781 -23.351562 25.375 -20.40625 C 28.320312 -17.394531 31.738281 -15.0625 35.625 -13.40625 C 39.507812 -11.75 43.648438 -10.921875 48.046875 -10.921875 Z M 48.046875 -10.921875 "/></g></g><g style="fill:#333333;fill-opacity:1;"><g transform="translate(810.817955, 243.777885)"><path style="stroke:none" d="M 15.34375 -99.421875 C 13.300781 -99.421875 11.585938 -100.128906 10.203125 -101.546875 C 8.816406 -102.960938 8.125 -104.660156 8.125 -106.640625 C 8.125 -108.691406 8.816406 -110.410156 10.203125 -111.796875 C 11.585938 -113.179688 13.300781 -113.875 15.34375 -113.875 C 17.394531 -113.875 19.128906 -113.179688 20.546875 -111.796875 C 21.960938 -110.410156 22.671875 -108.691406 22.671875 -106.640625 C 22.671875 -104.660156 21.960938 -102.960938 20.546875 -101.546875 C 19.128906 -100.128906 17.394531 -99.421875 15.34375 -99.421875 Z M 15.34375 0.453125 C 13.664062 0.453125 12.222656 -0.128906 11.015625 -1.296875 C 9.804688 -2.472656 9.203125 -3.90625 9.203125 -5.59375 L 9.203125 -81 C 9.203125 -82.75 9.804688 -84.207031 11.015625 -85.375 C 12.222656 -86.550781 13.664062 -87.140625 15.34375 -87.140625 C 17.09375 -87.140625 18.523438 -86.550781 19.640625 -85.375 C 20.753906 -84.207031 21.3125 -82.75 21.3125 -81 L 21.3125 -5.59375 C 21.3125 -3.90625 20.722656 -2.472656 19.546875 -1.296875 C 18.378906 -0.128906 16.976562 0.453125 15.34375 0.453125 Z M 15.34375 0.453125 "/></g></g><g style="fill:#333333;fill-opacity:1;"><g transform="translate(841.429299, 243.777885)"><path style="stroke:none" d="M 85.96875 31.328125 C 84.21875 31.328125 82.800781 30.738281 81.71875 29.5625 C 80.632812 28.394531 80.09375 26.910156 80.09375 25.109375 L 80.09375 -12.734375 C 76 -8.335938 71.195312 -4.9375 65.6875 -2.53125 C 60.1875 -0.125 54.304688 1.078125 48.046875 1.078125 C 42.078125 1.078125 36.429688 -0.046875 31.109375 -2.296875 C 25.785156 -4.554688 21.078125 -7.734375 16.984375 -11.828125 C 12.890625 -15.859375 9.695312 -20.550781 7.40625 -25.90625 C 5.113281 -31.269531 3.96875 -36.929688 3.96875 -42.890625 C 3.96875 -48.910156 5.113281 -54.628906 7.40625 -60.046875 C 9.695312 -65.460938 12.890625 -70.191406 16.984375 -74.234375 C 21.078125 -78.328125 25.785156 -81.5 31.109375 -83.75 C 36.429688 -86.007812 42.078125 -87.140625 48.046875 -87.140625 C 54.003906 -87.140625 59.644531 -86.039062 64.96875 -83.84375 C 70.300781 -81.644531 74.984375 -78.53125 79.015625 -74.5 C 83.046875 -70.46875 86.203125 -65.800781 88.484375 -60.5 C 90.773438 -55.207031 91.984375 -49.550781 92.109375 -43.53125 L 92.109375 25.109375 C 92.109375 26.847656 91.503906 28.316406 90.296875 29.515625 C 89.097656 30.722656 87.65625 31.328125 85.96875 31.328125 Z M 48.046875 -10.921875 C 52.492188 -10.921875 56.675781 -11.75 60.59375 -13.40625 C 64.507812 -15.0625 67.941406 -17.394531 70.890625 -20.40625 C 73.773438 -23.351562 76.03125 -26.769531 77.65625 -30.65625 C 79.28125 -34.539062 80.09375 -38.617188 80.09375 -42.890625 C 80.09375 -47.222656 79.28125 -51.347656 77.65625 -55.265625 C 76.03125 -59.179688 73.773438 -62.613281 70.890625 -65.5625 C 67.941406 -68.507812 64.492188 -70.8125 60.546875 -72.46875 C 56.597656 -74.125 52.429688 -74.953125 48.046875 -74.953125 C 43.648438 -74.953125 39.507812 -74.125 35.625 -72.46875 C 31.738281 -70.8125 28.320312 -68.507812 25.375 -65.5625 C 22.425781 -62.613281 20.125 -59.179688 18.46875 -55.265625 C 16.8125 -51.347656 15.984375 -47.222656 15.984375 -42.890625 C 15.984375 -38.617188 16.8125 -34.539062 18.46875 -30.65625 C 20.125 -26.769531 22.425781 -23.351562 25.375 -20.40625 C 28.320312 -17.394531 31.738281 -15.0625 35.625 -13.40625 C 39.507812 -11.75 43.648438 -10.921875 48.046875 -10.921875 Z M 48.046875 -10.921875 "/></g></g><g clip-rule="nonzero" clip-path="url(#566394f46d)"><g clip-rule="nonzero" clip-path="url(#3839fcd055)"><path style=" stroke:none;fill-rule:nonzero;fill:#289ea2;fill-opacity:1;" d="M 816.898438 129.359375 L 835.1875 129.359375 L 835.1875 147.648438 L 816.898438 147.648438 Z M 816.898438 129.359375 "/></g></g><g style="fill:#cb6ce6;fill-opacity:1;"><g transform="translate(305.998201, 335.457184)"><path style="stroke:none" d="M 29.4375 0 L 7.265625 0 C 6.015625 0 4.976562 -0.441406 4.15625 -1.328125 C 3.34375 -2.222656 2.9375 -3.382812 2.9375 -4.8125 C 2.9375 -6.195312 3.335938 -7.304688 4.140625 -8.140625 C 4.941406 -8.984375 5.984375 -9.40625 7.265625 -9.40625 L 28.640625 -9.40625 C 29.421875 -9.40625 30.203125 -9.535156 30.984375 -9.796875 C 31.765625 -10.066406 32.476562 -10.46875 33.125 -11 C 34.550781 -12.175781 35.265625 -13.726562 35.265625 -15.65625 C 35.265625 -17.507812 34.585938 -18.953125 33.234375 -19.984375 C 31.847656 -20.941406 30.332031 -21.441406 28.6875 -21.484375 L 18.75 -21.484375 C 16.6875 -21.484375 14.742188 -21.890625 12.921875 -22.703125 C 11.109375 -23.523438 9.507812 -24.664062 8.125 -26.125 C 6.769531 -27.507812 5.71875 -29.140625 4.96875 -31.015625 C 4.21875 -32.890625 3.84375 -34.835938 3.84375 -36.859375 C 3.84375 -38.859375 4.234375 -40.753906 5.015625 -42.546875 C 5.804688 -44.347656 6.878906 -45.925781 8.234375 -47.28125 C 9.585938 -48.632812 11.171875 -49.6875 12.984375 -50.4375 C 14.796875 -51.1875 16.71875 -51.5625 18.75 -51.5625 L 37.296875 -51.5625 C 38.648438 -51.5625 39.769531 -51.148438 40.65625 -50.328125 C 41.550781 -49.503906 42 -48.382812 42 -46.96875 C 42 -45.613281 41.570312 -44.472656 40.71875 -43.546875 C 39.820312 -42.585938 38.769531 -42.109375 37.5625 -42.109375 L 18.8125 -42.109375 C 17.3125 -42.109375 16.007812 -41.554688 14.90625 -40.453125 C 13.832031 -39.347656 13.296875 -38.046875 13.296875 -36.546875 C 13.296875 -34.910156 13.847656 -33.59375 14.953125 -32.59375 C 16.097656 -31.519531 17.382812 -30.984375 18.8125 -30.984375 L 29.546875 -30.984375 C 31.648438 -30.984375 33.644531 -30.570312 35.53125 -29.75 C 37.414062 -28.9375 39.035156 -27.800781 40.390625 -26.34375 C 41.742188 -24.914062 42.796875 -23.25 43.546875 -21.34375 C 44.296875 -19.4375 44.671875 -17.46875 44.671875 -15.4375 C 44.671875 -11.09375 43.226562 -7.476562 40.34375 -4.59375 C 38.945312 -3.132812 37.3125 -2.003906 35.4375 -1.203125 C 33.570312 -0.398438 31.570312 0 29.4375 0 Z M 29.4375 0 "/></g></g><g style="fill:#cb6ce6;fill-opacity:1;"><g transform="translate(353.120281, 335.457184)"><path style="stroke:none" d="M 28.578125 0.59375 C 25.015625 0.59375 21.640625 -0.0625 18.453125 -1.375 C 15.265625 -2.695312 12.460938 -4.535156 10.046875 -6.890625 C 7.617188 -9.273438 5.726562 -12.035156 4.375 -15.171875 C 3.019531 -18.304688 2.34375 -21.640625 2.34375 -25.171875 C 2.34375 -28.765625 3.007812 -32.171875 4.34375 -35.390625 C 5.6875 -38.617188 7.566406 -41.441406 9.984375 -43.859375 C 12.378906 -46.285156 15.175781 -48.175781 18.375 -49.53125 C 21.582031 -50.882812 24.984375 -51.5625 28.578125 -51.5625 C 32.003906 -51.5625 35.253906 -50.953125 38.328125 -49.734375 C 41.410156 -48.523438 44.078125 -46.800781 46.328125 -44.5625 C 47.460938 -43.3125 48.03125 -42.007812 48.03125 -40.65625 C 48.03125 -39.269531 47.476562 -38.128906 46.375 -37.234375 C 45.914062 -36.847656 45.398438 -36.546875 44.828125 -36.328125 C 44.253906 -36.117188 43.738281 -36.015625 43.28125 -36.015625 C 42.5 -36.015625 41.75 -36.207031 41.03125 -36.59375 L 37.296875 -39.265625 C 35.765625 -40.265625 34.238281 -40.957031 32.71875 -41.34375 C 31.207031 -41.738281 29.546875 -41.9375 27.734375 -41.9375 C 25.554688 -41.863281 23.503906 -41.375 21.578125 -40.46875 C 19.660156 -39.5625 17.988281 -38.34375 16.5625 -36.8125 C 15.132812 -35.28125 14.019531 -33.535156 13.21875 -31.578125 C 12.414062 -29.617188 12.015625 -27.585938 12.015625 -25.484375 C 12.015625 -23.347656 12.414062 -21.28125 13.21875 -19.28125 C 14.019531 -17.289062 15.148438 -15.546875 16.609375 -14.046875 C 18.109375 -12.441406 19.835938 -11.191406 21.796875 -10.296875 C 23.753906 -9.410156 25.875 -8.96875 28.15625 -8.96875 C 29.90625 -8.96875 31.507812 -9.164062 32.96875 -9.5625 C 34.425781 -9.957031 35.867188 -10.648438 37.296875 -11.640625 L 41.03125 -14.265625 C 41.851562 -14.691406 42.617188 -14.90625 43.328125 -14.90625 C 43.796875 -14.90625 44.3125 -14.796875 44.875 -14.578125 C 45.445312 -14.367188 45.945312 -14.066406 46.375 -13.671875 C 47.445312 -12.679688 47.984375 -11.546875 47.984375 -10.265625 C 47.984375 -9.585938 47.835938 -8.898438 47.546875 -8.203125 C 47.265625 -7.503906 46.859375 -6.890625 46.328125 -6.359375 C 44.117188 -4.148438 41.460938 -2.4375 38.359375 -1.21875 C 35.265625 -0.0078125 32.003906 0.59375 28.578125 0.59375 Z M 28.578125 0.59375 "/></g></g><g style="fill:#cb6ce6;fill-opacity:1;"><g transform="translate(403.554798, 335.457184)"><path style="stroke:none" d="M 9.609375 0 C 8.265625 0 7.144531 -0.441406 6.25 -1.328125 C 5.25 -2.222656 4.75 -3.347656 4.75 -4.703125 L 4.75 -24.25 C 4.75 -27.925781 5.453125 -31.425781 6.859375 -34.75 C 8.265625 -38.082031 10.21875 -41.015625 12.71875 -43.546875 C 15.25 -46.078125 18.160156 -48.046875 21.453125 -49.453125 C 24.742188 -50.859375 28.222656 -51.5625 31.890625 -51.5625 L 32.15625 -51.5625 C 33.726562 -51.5625 34.941406 -51.125 35.796875 -50.25 C 36.648438 -49.375 37.078125 -48.242188 37.078125 -46.859375 C 37.078125 -45.503906 36.601562 -44.378906 35.65625 -43.484375 C 34.71875 -42.597656 33.550781 -42.15625 32.15625 -42.15625 L 31.890625 -42.15625 C 29.503906 -42.15625 27.242188 -41.691406 25.109375 -40.765625 C 22.972656 -39.835938 21.085938 -38.554688 19.453125 -36.921875 C 17.773438 -35.242188 16.472656 -33.316406 15.546875 -31.140625 C 14.617188 -28.972656 14.15625 -26.675781 14.15625 -24.25 L 14.15625 -4.703125 C 14.15625 -3.347656 13.71875 -2.222656 12.84375 -1.328125 C 11.976562 -0.441406 10.898438 0 9.609375 0 Z M 9.609375 0 "/></g></g><g style="fill:#cb6ce6;fill-opacity:1;"><g transform="translate(441.808097, 335.457184)"><path style="stroke:none" d="M 10.265625 -57.859375 C 8.796875 -57.859375 7.53125 -58.394531 6.46875 -59.46875 C 5.394531 -60.53125 4.859375 -61.773438 4.859375 -63.203125 C 4.859375 -64.660156 5.394531 -65.925781 6.46875 -67 C 7.5 -68.03125 8.765625 -68.546875 10.265625 -68.546875 C 11.648438 -68.546875 12.910156 -68.03125 14.046875 -67 C 15.117188 -66 15.65625 -64.734375 15.65625 -63.203125 C 15.65625 -61.742188 15.117188 -60.5 14.046875 -59.46875 C 12.941406 -58.394531 11.679688 -57.859375 10.265625 -57.859375 Z M 10.265625 0.375 C 8.941406 0.375 7.804688 -0.078125 6.859375 -0.984375 C 5.921875 -1.890625 5.453125 -3.003906 5.453125 -4.328125 L 5.453125 -46.796875 C 5.453125 -48.148438 5.929688 -49.273438 6.890625 -50.171875 C 7.816406 -51.097656 8.957031 -51.5625 10.3125 -51.5625 C 11.59375 -51.5625 12.675781 -51.097656 13.5625 -50.171875 C 14.457031 -49.242188 14.90625 -48.117188 14.90625 -46.796875 L 14.90625 -4.328125 C 14.90625 -3.003906 14.453125 -1.890625 13.546875 -0.984375 C 12.640625 -0.078125 11.546875 0.375 10.265625 0.375 Z M 10.265625 0.375 "/></g></g><g style="fill:#cb6ce6;fill-opacity:1;"><g transform="translate(462.270413, 335.457184)"><path style="stroke:none" d="M 30.875 0.59375 C 27.351562 0.59375 24 -0.0820312 20.8125 -1.4375 C 17.625 -2.789062 14.835938 -4.660156 12.453125 -7.046875 C 10.023438 -9.429688 8.132812 -12.207031 6.78125 -15.375 C 5.425781 -18.550781 4.75 -21.90625 4.75 -25.4375 L 4.75 -65.5 C 4.75 -66.78125 5.210938 -67.9375 6.140625 -68.96875 C 7.066406 -69.894531 8.191406 -70.359375 9.515625 -70.359375 C 10.867188 -70.359375 11.976562 -69.894531 12.84375 -68.96875 C 13.71875 -68.050781 14.15625 -66.894531 14.15625 -65.5 L 14.15625 -41.5625 C 15.476562 -44.488281 17.707031 -46.878906 20.84375 -48.734375 C 22.332031 -49.617188 23.941406 -50.3125 25.671875 -50.8125 C 27.398438 -51.3125 29.132812 -51.5625 30.875 -51.5625 C 34.40625 -51.5625 37.765625 -50.882812 40.953125 -49.53125 C 44.140625 -48.175781 46.925781 -46.304688 49.3125 -43.921875 C 51.695312 -41.492188 53.554688 -38.695312 54.890625 -35.53125 C 56.234375 -32.363281 56.90625 -29 56.90625 -25.4375 C 56.90625 -21.90625 56.234375 -18.550781 54.890625 -15.375 C 53.554688 -12.207031 51.695312 -9.429688 49.3125 -7.046875 C 46.925781 -4.660156 44.140625 -2.789062 40.953125 -1.4375 C 37.765625 -0.0820312 34.40625 0.59375 30.875 0.59375 Z M 30.875 -8.875 C 33.15625 -8.875 35.3125 -9.300781 37.34375 -10.15625 C 39.375 -11.007812 41.15625 -12.203125 42.6875 -13.734375 C 44.21875 -15.265625 45.398438 -17.035156 46.234375 -19.046875 C 47.078125 -21.054688 47.5 -23.1875 47.5 -25.4375 C 47.5 -27.707031 47.078125 -29.847656 46.234375 -31.859375 C 45.398438 -33.878906 44.21875 -35.65625 42.6875 -37.1875 C 41.15625 -38.71875 39.375 -39.898438 37.34375 -40.734375 C 35.3125 -41.578125 33.15625 -42 30.875 -42 C 28.601562 -42 26.453125 -41.578125 24.421875 -40.734375 C 22.390625 -39.898438 20.609375 -38.71875 19.078125 -37.1875 C 17.546875 -35.65625 16.351562 -33.878906 15.5 -31.859375 C 14.644531 -29.847656 14.21875 -27.707031 14.21875 -25.4375 C 14.21875 -23.1875 14.644531 -21.054688 15.5 -19.046875 C 16.351562 -17.035156 17.546875 -15.265625 19.078125 -13.734375 C 20.609375 -12.203125 22.390625 -11.007812 24.421875 -10.15625 C 26.453125 -9.300781 28.601562 -8.875 30.875 -8.875 Z M 30.875 -8.875 "/></g></g><g style="fill:#cb6ce6;fill-opacity:1;"><g transform="translate(521.520291, 335.457184)"><path style="stroke:none" d="M 28.53125 0.640625 C 25 0.640625 21.628906 -0.0351562 18.421875 -1.390625 C 15.222656 -2.742188 12.429688 -4.613281 10.046875 -7 C 7.617188 -9.382812 5.726562 -12.171875 4.375 -15.359375 C 3.019531 -18.546875 2.34375 -21.90625 2.34375 -25.4375 C 2.34375 -29 3.019531 -32.375 4.375 -35.5625 C 5.726562 -38.75 7.617188 -41.535156 10.046875 -43.921875 C 12.429688 -46.304688 15.222656 -48.175781 18.421875 -49.53125 C 21.628906 -50.882812 25 -51.5625 28.53125 -51.5625 C 32.019531 -51.5625 35.359375 -50.890625 38.546875 -49.546875 C 41.734375 -48.210938 44.539062 -46.351562 46.96875 -43.96875 C 49.351562 -41.582031 51.226562 -38.800781 52.59375 -35.625 C 53.96875 -32.457031 54.675781 -29.128906 54.71875 -25.640625 C 54.71875 -24.359375 54.285156 -23.289062 53.421875 -22.4375 C 52.566406 -21.582031 51.460938 -21.15625 50.109375 -21.15625 L 12.828125 -21.15625 C 13.210938 -19.34375 13.882812 -17.671875 14.84375 -16.140625 C 15.8125 -14.609375 16.988281 -13.253906 18.375 -12.078125 C 21.300781 -9.648438 24.6875 -8.4375 28.53125 -8.4375 C 30.3125 -8.4375 31.816406 -8.597656 33.046875 -8.921875 C 34.273438 -9.242188 35.515625 -9.78125 36.765625 -10.53125 C 37.753906 -11.09375 38.695312 -11.375 39.59375 -11.375 C 40.800781 -11.375 41.882812 -10.894531 42.84375 -9.9375 C 43.769531 -8.9375 44.234375 -7.78125 44.234375 -6.46875 C 44.234375 -4.289062 42.664062 -2.546875 39.53125 -1.234375 C 38.113281 -0.628906 36.453125 -0.164062 34.546875 0.15625 C 32.640625 0.476562 30.632812 0.640625 28.53125 0.640625 Z M 12.5625 -29.0625 L 45.046875 -29.0625 C 44.367188 -32.976562 42.515625 -36.1875 39.484375 -38.6875 C 38.023438 -39.894531 36.367188 -40.835938 34.515625 -41.515625 C 32.660156 -42.191406 30.71875 -42.53125 28.6875 -42.53125 C 24.445312 -42.53125 20.867188 -41.226562 17.953125 -38.625 C 16.523438 -37.414062 15.347656 -35.984375 14.421875 -34.328125 C 13.492188 -32.671875 12.875 -30.914062 12.5625 -29.0625 Z M 12.5625 -29.0625 "/></g></g><g style="fill:#333333;fill-opacity:1;"><g transform="translate(578.58218, 335.457184)"><path style="stroke:none" d="M 40.34375 -26.34375 L 8.4375 -26.34375 C 7.082031 -26.34375 5.941406 -26.804688 5.015625 -27.734375 C 4.097656 -28.660156 3.640625 -29.765625 3.640625 -31.046875 C 3.640625 -32.398438 4.097656 -33.546875 5.015625 -34.484375 C 5.941406 -35.429688 7.082031 -35.90625 8.4375 -35.90625 L 40.34375 -35.90625 C 41.65625 -35.90625 42.8125 -35.425781 43.8125 -34.46875 C 44.738281 -33.425781 45.203125 -32.285156 45.203125 -31.046875 C 45.203125 -29.765625 44.738281 -28.660156 43.8125 -27.734375 C 42.78125 -26.804688 41.625 -26.34375 40.34375 -26.34375 Z M 40.34375 -26.34375 "/></g></g><g style="fill:#ff914d;fill-opacity:1;"><g transform="translate(628.386396, 335.457184)"><path style="stroke:none" d="M 28.53125 0.640625 C 25 0.640625 21.628906 -0.0351562 18.421875 -1.390625 C 15.222656 -2.742188 12.429688 -4.613281 10.046875 -7 C 7.617188 -9.382812 5.726562 -12.171875 4.375 -15.359375 C 3.019531 -18.546875 2.34375 -21.90625 2.34375 -25.4375 C 2.34375 -29 3.019531 -32.375 4.375 -35.5625 C 5.726562 -38.75 7.617188 -41.535156 10.046875 -43.921875 C 12.429688 -46.304688 15.222656 -48.175781 18.421875 -49.53125 C 21.628906 -50.882812 25 -51.5625 28.53125 -51.5625 C 32.019531 -51.5625 35.359375 -50.890625 38.546875 -49.546875 C 41.734375 -48.210938 44.539062 -46.351562 46.96875 -43.96875 C 49.351562 -41.582031 51.226562 -38.800781 52.59375 -35.625 C 53.96875 -32.457031 54.675781 -29.128906 54.71875 -25.640625 C 54.71875 -24.359375 54.285156 -23.289062 53.421875 -22.4375 C 52.566406 -21.582031 51.460938 -21.15625 50.109375 -21.15625 L 12.828125 -21.15625 C 13.210938 -19.34375 13.882812 -17.671875 14.84375 -16.140625 C 15.8125 -14.609375 16.988281 -13.253906 18.375 -12.078125 C 21.300781 -9.648438 24.6875 -8.4375 28.53125 -8.4375 C 30.3125 -8.4375 31.816406 -8.597656 33.046875 -8.921875 C 34.273438 -9.242188 35.515625 -9.78125 36.765625 -10.53125 C 37.753906 -11.09375 38.695312 -11.375 39.59375 -11.375 C 40.800781 -11.375 41.882812 -10.894531 42.84375 -9.9375 C 43.769531 -8.9375 44.234375 -7.78125 44.234375 -6.46875 C 44.234375 -4.289062 42.664062 -2.546875 39.53125 -1.234375 C 38.113281 -0.628906 36.453125 -0.164062 34.546875 0.15625 C 32.640625 0.476562 30.632812 0.640625 28.53125 0.640625 Z M 12.5625 -29.0625 L 45.046875 -29.0625 C 44.367188 -32.976562 42.515625 -36.1875 39.484375 -38.6875 C 38.023438 -39.894531 36.367188 -40.835938 34.515625 -41.515625 C 32.660156 -42.191406 30.71875 -42.53125 28.6875 -42.53125 C 24.445312 -42.53125 20.867188 -41.226562 17.953125 -38.625 C 16.523438 -37.414062 15.347656 -35.984375 14.421875 -34.328125 C 13.492188 -32.671875 12.875 -30.914062 12.5625 -29.0625 Z M 12.5625 -29.0625 "/></g></g><g style="fill:#ff914d;fill-opacity:1;"><g transform="translate(685.445787, 335.457184)"><path style="stroke:none" d="M 8.546875 0 C 7.191406 0 6.070312 -0.441406 5.1875 -1.328125 C 4.1875 -2.222656 3.6875 -3.328125 3.6875 -4.640625 L 3.6875 -26.390625 C 3.6875 -29.804688 4.304688 -33.046875 5.546875 -36.109375 C 6.796875 -39.179688 8.546875 -41.875 10.796875 -44.1875 C 13.078125 -46.5 15.710938 -48.304688 18.703125 -49.609375 C 21.691406 -50.910156 24.878906 -51.5625 28.265625 -51.5625 C 31.679688 -51.5625 34.894531 -50.910156 37.90625 -49.609375 C 40.914062 -48.304688 43.578125 -46.5 45.890625 -44.1875 C 48.140625 -41.875 49.882812 -39.179688 51.125 -36.109375 C 52.375 -33.046875 53 -29.804688 53 -26.390625 L 53 -4.640625 C 53 -3.296875 52.550781 -2.1875 51.65625 -1.3125 C 50.769531 -0.4375 49.671875 0 48.359375 0 C 47.035156 0 45.910156 -0.4375 44.984375 -1.3125 C 44.054688 -2.1875 43.59375 -3.296875 43.59375 -4.640625 L 43.59375 -26.28125 C 43.5625 -28.425781 43.160156 -30.457031 42.390625 -32.375 C 41.628906 -34.300781 40.550781 -35.976562 39.15625 -37.40625 C 37.738281 -38.863281 36.09375 -40 34.21875 -40.8125 C 32.351562 -41.632812 30.367188 -42.046875 28.265625 -42.046875 C 23.921875 -42.046875 20.320312 -40.53125 17.46875 -37.5 C 16.082031 -36.082031 15.015625 -34.410156 14.265625 -32.484375 C 13.515625 -30.554688 13.140625 -28.523438 13.140625 -26.390625 L 13.140625 -4.640625 C 13.140625 -3.296875 12.703125 -2.1875 11.828125 -1.3125 C 10.960938 -0.4375 9.867188 0 8.546875 0 Z M 8.546875 0 "/></g></g><g style="fill:#ff914d;fill-opacity:1;"><g transform="translate(743.573705, 335.457184)"><path style="stroke:none" d="M 16.609375 23.34375 C 15.296875 23.34375 14.160156 22.863281 13.203125 21.90625 C 12.734375 21.476562 12.351562 20.960938 12.0625 20.359375 C 11.78125 19.753906 11.640625 19.148438 11.640625 18.546875 C 11.640625 16.867188 12.550781 15.425781 14.375 14.21875 C 15.9375 13.175781 18 12.316406 20.5625 11.640625 C 21.601562 11.398438 22.613281 11.242188 23.59375 11.171875 C 24.570312 11.097656 25.769531 11.0625 27.1875 11.0625 L 29.65625 11.0625 C 29.9375 11.09375 30.289062 11.109375 30.71875 11.109375 C 31.144531 11.109375 31.644531 11.109375 32.21875 11.109375 C 40.65625 11.109375 44.875 7.941406 44.875 1.609375 C 44.875 0.179688 44.695312 -0.992188 44.34375 -1.921875 C 44.269531 -2.097656 44.1875 -2.285156 44.09375 -2.484375 C 44.007812 -2.679688 43.898438 -2.867188 43.765625 -3.046875 L 43.171875 -3.953125 C 38.753906 -0.890625 33.835938 0.640625 28.421875 0.640625 C 24.898438 0.640625 21.5625 -0.0234375 18.40625 -1.359375 C 15.25 -2.691406 12.460938 -4.570312 10.046875 -7 C 7.617188 -9.382812 5.726562 -12.171875 4.375 -15.359375 C 3.019531 -18.546875 2.34375 -21.90625 2.34375 -25.4375 C 2.34375 -28.957031 3.019531 -32.3125 4.375 -35.5 C 5.726562 -38.6875 7.617188 -41.492188 10.046875 -43.921875 C 12.460938 -46.335938 15.25 -48.210938 18.40625 -49.546875 C 21.5625 -50.890625 24.898438 -51.5625 28.421875 -51.5625 C 31.984375 -51.5625 35.359375 -50.882812 38.546875 -49.53125 C 41.734375 -48.175781 44.519531 -46.304688 46.90625 -43.921875 C 49.289062 -41.492188 51.148438 -38.695312 52.484375 -35.53125 C 53.828125 -32.363281 54.5 -29 54.5 -25.4375 C 54.5 -20.226562 53.003906 -15.347656 50.015625 -10.796875 C 52.785156 -7.796875 54.171875 -3.695312 54.171875 1.5 C 54.171875 4.488281 53.671875 7.175781 52.671875 9.5625 C 51.679688 11.945312 50.273438 13.976562 48.453125 15.65625 C 46.742188 17.257812 44.765625 18.46875 42.515625 19.28125 C 40.273438 20.101562 37.929688 20.515625 35.484375 20.515625 C 34.160156 20.515625 32.769531 20.410156 31.3125 20.203125 C 30.53125 20.128906 29.769531 20.0625 29.03125 20 C 28.300781 19.945312 27.632812 19.921875 27.03125 19.921875 C 24.039062 19.921875 21.515625 20.6875 19.453125 22.21875 C 18.660156 22.96875 17.710938 23.34375 16.609375 23.34375 Z M 28.421875 -8.8125 C 30.734375 -8.8125 32.90625 -9.238281 34.9375 -10.09375 C 36.96875 -10.945312 38.75 -12.160156 40.28125 -13.734375 C 41.8125 -15.265625 42.992188 -17.035156 43.828125 -19.046875 C 44.671875 -21.054688 45.09375 -23.1875 45.09375 -25.4375 C 45.09375 -27.675781 44.671875 -29.800781 43.828125 -31.8125 C 42.992188 -33.820312 41.8125 -35.597656 40.28125 -37.140625 C 38.75 -38.671875 36.96875 -39.863281 34.9375 -40.71875 C 32.90625 -41.570312 30.734375 -42 28.421875 -42 C 26.140625 -42 23.992188 -41.570312 21.984375 -40.71875 C 19.972656 -39.863281 18.203125 -38.671875 16.671875 -37.140625 C 15.140625 -35.597656 13.945312 -33.820312 13.09375 -31.8125 C 12.238281 -29.800781 11.8125 -27.675781 11.8125 -25.4375 C 11.8125 -23.1875 12.238281 -21.054688 13.09375 -19.046875 C 13.945312 -17.035156 15.140625 -15.265625 16.671875 -13.734375 C 18.203125 -12.160156 19.972656 -10.945312 21.984375 -10.09375 C 23.992188 -9.238281 26.140625 -8.8125 28.421875 -8.8125 Z M 28.421875 -8.8125 "/></g></g><g style="fill:#ff914d;fill-opacity:1;"><g transform="translate(800.579675, 335.457184)"><path style="stroke:none" d="M 10.265625 -57.859375 C 8.796875 -57.859375 7.53125 -58.394531 6.46875 -59.46875 C 5.394531 -60.53125 4.859375 -61.773438 4.859375 -63.203125 C 4.859375 -64.660156 5.394531 -65.925781 6.46875 -67 C 7.5 -68.03125 8.765625 -68.546875 10.265625 -68.546875 C 11.648438 -68.546875 12.910156 -68.03125 14.046875 -67 C 15.117188 -66 15.65625 -64.734375 15.65625 -63.203125 C 15.65625 -61.742188 15.117188 -60.5 14.046875 -59.46875 C 12.941406 -58.394531 11.679688 -57.859375 10.265625 -57.859375 Z M 10.265625 0.375 C 8.941406 0.375 7.804688 -0.078125 6.859375 -0.984375 C 5.921875 -1.890625 5.453125 -3.003906 5.453125 -4.328125 L 5.453125 -46.796875 C 5.453125 -48.148438 5.929688 -49.273438 6.890625 -50.171875 C 7.816406 -51.097656 8.957031 -51.5625 10.3125 -51.5625 C 11.59375 -51.5625 12.675781 -51.097656 13.5625 -50.171875 C 14.457031 -49.242188 14.90625 -48.117188 14.90625 -46.796875 L 14.90625 -4.328125 C 14.90625 -3.003906 14.453125 -1.890625 13.546875 -0.984375 C 12.640625 -0.078125 11.546875 0.375 10.265625 0.375 Z M 10.265625 0.375 "/></g></g><g style="fill:#ff914d;fill-opacity:1;"><g transform="translate(821.04199, 335.457184)"><path style="stroke:none" d="M 8.546875 0 C 7.191406 0 6.070312 -0.441406 5.1875 -1.328125 C 4.1875 -2.222656 3.6875 -3.328125 3.6875 -4.640625 L 3.6875 -26.390625 C 3.6875 -29.804688 4.304688 -33.046875 5.546875 -36.109375 C 6.796875 -39.179688 8.546875 -41.875 10.796875 -44.1875 C 13.078125 -46.5 15.710938 -48.304688 18.703125 -49.609375 C 21.691406 -50.910156 24.878906 -51.5625 28.265625 -51.5625 C 31.679688 -51.5625 34.894531 -50.910156 37.90625 -49.609375 C 40.914062 -48.304688 43.578125 -46.5 45.890625 -44.1875 C 48.140625 -41.875 49.882812 -39.179688 51.125 -36.109375 C 52.375 -33.046875 53 -29.804688 53 -26.390625 L 53 -4.640625 C 53 -3.296875 52.550781 -2.1875 51.65625 -1.3125 C 50.769531 -0.4375 49.671875 0 48.359375 0 C 47.035156 0 45.910156 -0.4375 44.984375 -1.3125 C 44.054688 -2.1875 43.59375 -3.296875 43.59375 -4.640625 L 43.59375 -26.28125 C 43.5625 -28.425781 43.160156 -30.457031 42.390625 -32.375 C 41.628906 -34.300781 40.550781 -35.976562 39.15625 -37.40625 C 37.738281 -38.863281 36.09375 -40 34.21875 -40.8125 C 32.351562 -41.632812 30.367188 -42.046875 28.265625 -42.046875 C 23.921875 -42.046875 20.320312 -40.53125 17.46875 -37.5 C 16.082031 -36.082031 15.015625 -34.410156 14.265625 -32.484375 C 13.515625 -30.554688 13.140625 -28.523438 13.140625 -26.390625 L 13.140625 -4.640625 C 13.140625 -3.296875 12.703125 -2.1875 11.828125 -1.3125 C 10.960938 -0.4375 9.867188 0 8.546875 0 Z M 8.546875 0 "/></g></g><g style="fill:#ff914d;fill-opacity:1;"><g transform="translate(879.169908, 335.457184)"><path style="stroke:none" d="M 28.53125 0.640625 C 25 0.640625 21.628906 -0.0351562 18.421875 -1.390625 C 15.222656 -2.742188 12.429688 -4.613281 10.046875 -7 C 7.617188 -9.382812 5.726562 -12.171875 4.375 -15.359375 C 3.019531 -18.546875 2.34375 -21.90625 2.34375 -25.4375 C 2.34375 -29 3.019531 -32.375 4.375 -35.5625 C 5.726562 -38.75 7.617188 -41.535156 10.046875 -43.921875 C 12.429688 -46.304688 15.222656 -48.175781 18.421875 -49.53125 C 21.628906 -50.882812 25 -51.5625 28.53125 -51.5625 C 32.019531 -51.5625 35.359375 -50.890625 38.546875 -49.546875 C 41.734375 -48.210938 44.539062 -46.351562 46.96875 -43.96875 C 49.351562 -41.582031 51.226562 -38.800781 52.59375 -35.625 C 53.96875 -32.457031 54.675781 -29.128906 54.71875 -25.640625 C 54.71875 -24.359375 54.285156 -23.289062 53.421875 -22.4375 C 52.566406 -21.582031 51.460938 -21.15625 50.109375 -21.15625 L 12.828125 -21.15625 C 13.210938 -19.34375 13.882812 -17.671875 14.84375 -16.140625 C 15.8125 -14.609375 16.988281 -13.253906 18.375 -12.078125 C 21.300781 -9.648438 24.6875 -8.4375 28.53125 -8.4375 C 30.3125 -8.4375 31.816406 -8.597656 33.046875 -8.921875 C 34.273438 -9.242188 35.515625 -9.78125 36.765625 -10.53125 C 37.753906 -11.09375 38.695312 -11.375 39.59375 -11.375 C 40.800781 -11.375 41.882812 -10.894531 42.84375 -9.9375 C 43.769531 -8.9375 44.234375 -7.78125 44.234375 -6.46875 C 44.234375 -4.289062 42.664062 -2.546875 39.53125 -1.234375 C 38.113281 -0.628906 36.453125 -0.164062 34.546875 0.15625 C 32.640625 0.476562 30.632812 0.640625 28.53125 0.640625 Z M 12.5625 -29.0625 L 45.046875 -29.0625 C 44.367188 -32.976562 42.515625 -36.1875 39.484375 -38.6875 C 38.023438 -39.894531 36.367188 -40.835938 34.515625 -41.515625 C 32.660156 -42.191406 30.71875 -42.53125 28.6875 -42.53125 C 24.445312 -42.53125 20.867188 -41.226562 17.953125 -38.625 C 16.523438 -37.414062 15.347656 -35.984375 14.421875 -34.328125 C 13.492188 -32.671875 12.875 -30.914062 12.5625 -29.0625 Z M 12.5625 -29.0625 "/></g></g><g clip-rule="nonzero" clip-path="url(#e9d341fe22)"><g clip-rule="nonzero" clip-path="url(#7758f4c91e)"><g clip-rule="nonzero" clip-path="url(#a5c3f5d577)"><path style=" stroke:none;fill-rule:nonzero;fill:#7ed3d2;fill-opacity:1;" d="M 196.171875 117.042969 C 196.480469 112.289062 196.003906 107.871094 194.570312 104.199219 C 193.882812 102.292969 192.917969 100.277344 191.699219 98.480469 C 190.699219 96.9375 189.367188 95.417969 188.117188 94.097656 C 187.171875 93.226562 186.226562 92.351562 185.421875 91.539062 C 184.835938 90.976562 184.253906 90.414062 183.671875 89.851562 L 183.003906 89.089844 C 181.976562 88.023438 180.808594 86.898438 179.585938 85.910156 C 177.664062 84.640625 175.683594 83.511719 173.847656 82.4375 C 172.148438 81.421875 170.335938 80.683594 168.300781 79.695312 C 167.882812 79.523438 167.324219 79.296875 166.90625 79.125 C 163.835938 77.878906 160.515625 76.851562 156.523438 75.878906 C 153.148438 74.992188 149.460938 74.464844 145.742188 74.417969 C 143.84375 74.292969 141.886719 74.308594 140.152344 74.578125 C 138.277344 74.789062 136.230469 75.421875 134.214844 76.386719 C 132.136719 77.492188 130.371094 78.238281 128.828125 79.234375 C 128.125 79.761719 127.285156 80.234375 126.582031 80.757812 C 126.132812 81.066406 125.683594 81.371094 125.234375 81.675781 C 124.085938 82.507812 122.992188 83.199219 122.117188 84.144531 C 121.105469 85.03125 119.980469 86.199219 118.9375 87.5625 C 118.207031 88.566406 117.472656 89.566406 116.878906 90.625 C 116.625 90.847656 116.457031 91.265625 116.203125 91.488281 C 115.046875 93.132812 114.03125 94.832031 112.730469 97.226562 C 110.894531 100.542969 109.28125 104.109375 107.914062 108.269531 C 107.316406 110.136719 106.546875 112.425781 106.253906 114.746094 C 106.015625 116.921875 105.917969 119.160156 106.15625 121.371094 C 106.371094 123.242188 106.804688 125.371094 107.601562 127.808594 C 107.984375 129.261719 108.703125 130.695312 109.28125 132.066406 L 109.777344 133.242188 C 111.347656 136.972656 113.648438 140.507812 116.757812 144.046875 C 118.230469 145.621094 119.898438 147.113281 121.984375 148.777344 C 123.988281 150.242188 126.1875 151.625 127.886719 152.640625 C 129.449219 153.601562 131.261719 154.339844 133.574219 155.441406 C 134.132812 155.667969 134.550781 155.839844 135.109375 156.066406 C 135.527344 156.238281 135.945312 156.40625 136.363281 156.578125 C 137.757812 157.144531 139.125 157.375 140.160156 157.632812 C 142.085938 158.09375 144.066406 158.414062 146.304688 158.507812 C 148.484375 158.746094 150.832031 158.566406 152.984375 158.464844 C 153.992188 158.386719 155.140625 158.367188 156.34375 158.207031 C 157.210938 158.070312 158.078125 157.9375 158.804688 157.746094 L 159.335938 157.636719 C 161.324219 157.144531 163.367188 156.515625 166.058594 155.496094 C 168.355469 154.644531 170.179688 153.757812 171.804688 152.957031 C 174.019531 151.910156 175.984375 150.273438 177.839844 148.914062 C 179.75 147.414062 181.4375 145.664062 183.066406 144.050781 C 184.445312 142.664062 185.878906 141.132812 186.980469 139.628906 C 188.332031 137.90625 189.460938 135.925781 190.535156 134.089844 C 191.355469 132.472656 192.234375 130.714844 193.222656 128.679688 C 194.132812 126.449219 194.761719 124.105469 195.21875 122.179688 C 195.785156 120.785156 195.992188 119.082031 196.171875 117.042969 Z M 196.171875 117.042969 "/></g></g></g><g clip-rule="nonzero" clip-path="url(#2d91f794df)"><path style=" stroke:none;fill-rule:nonzero;fill:#3aa6a9;fill-opacity:1;" d="M 192.566406 187.734375 C 191.058594 183.21875 188.953125 179.304688 186.242188 176.445312 C 184.886719 174.9375 183.230469 173.433594 181.425781 172.226562 C 179.921875 171.175781 178.113281 170.269531 176.457031 169.519531 C 175.253906 169.066406 174.050781 168.617188 172.996094 168.164062 C 172.242188 167.863281 171.488281 167.5625 170.738281 167.261719 L 169.832031 166.808594 C 168.480469 166.207031 166.972656 165.605469 165.46875 165.152344 C 163.210938 164.699219 160.953125 164.398438 158.84375 164.097656 C 156.886719 163.796875 154.929688 163.796875 152.671875 163.648438 C 152.21875 163.648438 151.617188 163.648438 151.167969 163.648438 C 147.855469 163.648438 144.390625 163.949219 140.328125 164.550781 C 136.863281 165.003906 133.253906 165.90625 129.789062 167.261719 C 127.984375 167.863281 126.175781 168.617188 124.671875 169.519531 C 123.015625 170.421875 121.359375 171.777344 119.855469 173.433594 C 118.347656 175.238281 116.992188 176.59375 115.941406 178.097656 C 115.488281 178.851562 114.886719 179.605469 114.433594 180.359375 C 114.132812 180.808594 113.832031 181.261719 113.53125 181.710938 C 112.777344 182.917969 112.027344 183.96875 111.574219 185.175781 C 110.972656 186.378906 110.371094 187.882812 109.917969 189.539062 C 109.617188 190.746094 109.316406 191.949219 109.164062 193.152344 C 109.015625 193.453125 109.015625 193.90625 108.863281 194.207031 C 108.414062 196.164062 108.113281 198.121094 107.808594 200.832031 C 107.359375 204.59375 107.207031 208.507812 107.507812 212.875 C 107.660156 214.832031 107.808594 217.242188 108.414062 219.5 C 109.015625 221.605469 109.765625 223.714844 110.820312 225.671875 C 111.722656 227.328125 112.929688 229.132812 114.585938 231.089844 C 115.488281 232.292969 116.691406 233.347656 117.746094 234.402344 L 118.648438 235.304688 C 121.507812 238.164062 124.972656 240.574219 129.1875 242.683594 C 131.144531 243.585938 133.253906 244.339844 135.8125 245.089844 C 138.21875 245.691406 140.777344 246.144531 142.734375 246.445312 C 144.542969 246.746094 146.5 246.746094 149.058594 246.898438 C 149.660156 246.898438 150.113281 246.898438 150.714844 246.898438 C 151.167969 246.898438 151.617188 246.898438 152.070312 246.898438 C 153.574219 246.898438 154.929688 246.597656 155.984375 246.445312 C 157.941406 246.144531 159.898438 245.691406 162.003906 244.941406 C 164.113281 244.339844 166.222656 243.285156 168.179688 242.382812 C 169.082031 241.929688 170.136719 241.476562 171.1875 240.875 C 171.941406 240.425781 172.695312 239.972656 173.296875 239.519531 L 173.746094 239.21875 C 175.402344 238.015625 177.058594 236.660156 179.167969 234.703125 C 180.972656 233.046875 182.328125 231.542969 183.53125 230.1875 C 185.1875 228.378906 186.394531 226.121094 187.597656 224.164062 C 188.800781 222.058594 189.707031 219.800781 190.609375 217.691406 C 191.363281 215.886719 192.113281 213.929688 192.566406 212.121094 C 193.167969 210.015625 193.46875 207.757812 193.769531 205.648438 C 193.921875 203.84375 194.070312 201.886719 194.222656 199.628906 C 194.222656 197.21875 193.921875 194.808594 193.621094 192.851562 C 193.621094 191.347656 193.167969 189.691406 192.566406 187.734375 Z M 192.566406 187.734375 "/></g><g clip-rule="nonzero" clip-path="url(#3e44d5146b)"><g clip-rule="nonzero" clip-path="url(#b60a7a3267)"><g clip-rule="nonzero" clip-path="url(#5bdca086fb)"><path style=" stroke:none;fill-rule:nonzero;fill:#1a838a;fill-opacity:1;" d="M 161.542969 251.863281 C 157.023438 250.378906 152.625 249.734375 148.710938 250.203125 C 146.695312 250.390625 144.5 250.820312 142.453125 251.550781 C 140.710938 252.132812 138.90625 253.042969 137.316406 253.921875 C 136.234375 254.617188 135.152344 255.316406 134.160156 255.890625 C 133.472656 256.316406 132.78125 256.742188 132.089844 257.164062 L 131.1875 257.621094 C 129.898438 258.347656 128.515625 259.195312 127.253906 260.136719 C 125.542969 261.679688 123.957031 263.3125 122.457031 264.824219 C 121.046875 266.214844 119.878906 267.785156 118.410156 269.507812 C 118.140625 269.867188 117.78125 270.351562 117.511719 270.714844 C 115.535156 273.371094 113.710938 276.332031 111.769531 279.953125 C 110.066406 283 108.636719 286.4375 107.65625 290.023438 C 107.0625 291.832031 106.589844 293.730469 106.414062 295.480469 C 106.152344 297.347656 106.25 299.484375 106.679688 301.679688 C 107.234375 303.964844 107.511719 305.863281 108.089844 307.605469 C 108.425781 308.417969 108.671875 309.351562 109.003906 310.160156 C 109.1875 310.671875 109.371094 311.183594 109.554688 311.695312 C 110.070312 313.019531 110.46875 314.25 111.164062 315.332031 C 111.769531 316.535156 112.621094 317.914062 113.679688 319.265625 C 114.464844 320.226562 115.253906 321.1875 116.128906 322.023438 C 116.28125 322.324219 116.644531 322.59375 116.796875 322.894531 C 118.097656 324.425781 119.488281 325.835938 121.480469 327.695312 C 124.234375 330.300781 127.285156 332.757812 130.96875 335.121094 C 132.628906 336.167969 134.648438 337.484375 136.820312 338.347656 C 138.871094 339.125 141.011719 339.777344 143.210938 340.097656 C 145.078125 340.363281 147.246094 340.472656 149.804688 340.3125 C 151.3125 340.304688 152.875 339.96875 154.351562 339.75 L 155.613281 339.566406 C 159.617188 338.976562 163.617188 337.636719 167.820312 335.511719 C 169.714844 334.480469 171.574219 333.238281 173.707031 331.632812 C 175.628906 330.058594 177.515625 328.273438 178.925781 326.882812 C 180.246094 325.613281 181.414062 324.042969 183.0625 322.078125 C 183.421875 321.597656 183.691406 321.234375 184.050781 320.75 C 184.320312 320.386719 184.589844 320.027344 184.859375 319.664062 C 185.757812 318.457031 186.324219 317.1875 186.832031 316.253906 C 187.757812 314.503906 188.5625 312.664062 189.214844 310.523438 C 189.992188 308.472656 190.402344 306.152344 190.84375 304.042969 C 191.023438 303.046875 191.289062 301.933594 191.433594 300.726562 C 191.519531 299.855469 191.605469 298.980469 191.605469 298.226562 L 191.632812 297.6875 C 191.652344 295.636719 191.554688 293.5 191.242188 290.640625 C 190.992188 288.203125 190.589844 286.21875 190.222656 284.445312 C 189.761719 282.039062 188.667969 279.722656 187.816406 277.589844 C 186.84375 275.363281 185.570312 273.292969 184.417969 271.308594 C 183.417969 269.628906 182.296875 267.855469 181.113281 266.417969 C 179.78125 264.675781 178.152344 263.085938 176.640625 261.585938 C 175.277344 260.390625 173.796875 259.101562 172.074219 257.632812 C 170.144531 256.195312 168.03125 255 166.28125 254.074219 C 165.074219 253.175781 163.472656 252.550781 161.542969 251.863281 Z M 161.542969 251.863281 "/></g></g></g><g clip-rule="nonzero" clip-path="url(#d96f1608d4)"><g clip-rule="nonzero" clip-path="url(#ae75b373c3)"><g clip-rule="nonzero" clip-path="url(#967a58e5ba)"><path style=" stroke:none;fill-rule:nonzero;fill:#289ea2;fill-opacity:1;" d="M 275.71875 235.328125 C 279.136719 232.015625 281.753906 228.421875 283.15625 224.742188 C 283.929688 222.867188 284.566406 220.722656 284.871094 218.574219 C 285.167969 216.761719 285.199219 214.742188 285.160156 212.921875 C 285.046875 211.640625 284.933594 210.359375 284.882812 209.214844 C 284.828125 208.40625 284.773438 207.597656 284.71875 206.789062 L 284.734375 205.777344 C 284.691406 204.296875 284.582031 202.679688 284.335938 201.125 C 283.765625 198.894531 283.058594 196.730469 282.417969 194.699219 C 281.84375 192.804688 280.996094 191.039062 280.152344 188.941406 C 279.957031 188.53125 279.695312 187.988281 279.5 187.582031 C 278.066406 184.597656 276.296875 181.605469 273.992188 178.203125 C 272.085938 175.277344 269.707031 172.414062 266.988281 169.878906 C 265.660156 168.511719 264.199219 167.210938 262.734375 166.242188 C 261.203125 165.140625 259.265625 164.238281 257.121094 163.597656 C 254.839844 163.023438 253.03125 162.386719 251.21875 162.089844 C 250.34375 162.007812 249.40625 161.792969 248.53125 161.710938 C 247.992188 161.636719 247.457031 161.558594 246.917969 161.484375 C 245.507812 161.328125 244.230469 161.105469 242.949219 161.21875 C 241.605469 161.199219 239.988281 161.308594 238.296875 161.617188 C 237.082031 161.867188 235.867188 162.117188 234.714844 162.503906 C 234.378906 162.496094 233.972656 162.691406 233.636719 162.6875 C 231.675781 163.128906 229.78125 163.703125 227.207031 164.605469 C 223.621094 165.828125 220.027344 167.390625 216.222656 169.550781 C 214.523438 170.535156 212.417969 171.714844 210.644531 173.234375 C 209.003906 174.6875 207.429688 176.28125 206.125 178.078125 C 205.023438 179.609375 203.914062 181.476562 202.867188 183.816406 C 202.171875 185.152344 201.746094 186.695312 201.253906 188.101562 L 200.828125 189.304688 C 199.488281 193.125 198.816406 197.289062 198.742188 202 C 198.777344 204.15625 199.011719 206.378906 199.441406 209.011719 C 199.941406 211.445312 200.644531 213.949219 201.21875 215.839844 C 201.730469 217.601562 202.578125 219.363281 203.550781 221.738281 C 203.8125 222.277344 204.007812 222.6875 204.265625 223.230469 C 204.464844 223.636719 204.660156 224.042969 204.855469 224.449219 C 205.507812 225.808594 206.363281 226.898438 206.957031 227.78125 C 208.074219 229.417969 209.328125 230.984375 210.921875 232.558594 C 212.375 234.199219 214.238281 235.640625 215.902344 237.011719 C 216.699219 237.632812 217.5625 238.386719 218.5625 239.074219 C 219.292969 239.558594 220.027344 240.042969 220.695312 240.386719 L 221.164062 240.664062 C 222.964844 241.636719 224.902344 242.542969 227.582031 243.59375 C 229.855469 244.503906 231.800781 245.074219 233.542969 245.574219 C 235.886719 246.285156 238.445312 246.390625 240.730469 246.628906 C 243.152344 246.800781 245.578125 246.636719 247.867188 246.539062 C 249.824219 246.4375 251.914062 246.265625 253.738281 245.890625 C 255.898438 245.523438 258.0625 244.816406 260.09375 244.171875 C 261.785156 243.527344 263.617188 242.816406 265.714844 241.972656 C 267.886719 240.929688 269.929688 239.617188 271.5625 238.496094 C 272.917969 237.84375 274.214844 236.71875 275.71875 235.328125 Z M 275.71875 235.328125 "/></g></g></g><g clip-rule="nonzero" clip-path="url(#1e54496fbb)"><g clip-rule="nonzero" clip-path="url(#55774db447)"><g clip-rule="nonzero" clip-path="url(#6ea54ce00f)"><path style=" stroke:none;fill-rule:nonzero;fill:#7ed3d2;fill-opacity:1;" d="M 20.765625 182.746094 C 18.054688 186.660156 16.1875 190.695312 15.523438 194.578125 C 15.128906 196.566406 14.917969 198.792969 15.039062 200.960938 C 15.097656 202.796875 15.460938 204.785156 15.851562 206.5625 C 16.210938 207.796875 16.570312 209.03125 16.84375 210.144531 C 17.054688 210.925781 17.261719 211.710938 17.472656 212.492188 L 17.65625 213.488281 C 17.984375 214.933594 18.40625 216.496094 18.949219 217.972656 C 19.941406 220.050781 21.054688 222.039062 22.078125 223.90625 C 23.011719 225.652344 24.183594 227.21875 25.417969 229.113281 C 25.6875 229.476562 26.050781 229.957031 26.320312 230.320312 C 28.308594 232.96875 30.625 235.558594 33.542969 238.453125 C 35.980469 240.949219 38.871094 243.300781 42.03125 245.257812 C 43.597656 246.34375 45.285156 247.335938 46.910156 248 C 48.625 248.78125 50.703125 249.296875 52.929688 249.507812 C 55.277344 249.628906 57.175781 249.898438 59.011719 249.839844 C 59.886719 249.75 60.847656 249.78125 61.722656 249.691406 C 62.265625 249.660156 62.804688 249.628906 63.347656 249.601562 C 64.761719 249.480469 66.058594 249.449219 67.292969 249.089844 C 68.617188 248.847656 70.183594 248.429688 71.777344 247.796875 C 72.921875 247.316406 74.066406 246.832031 75.121094 246.230469 C 75.453125 246.171875 75.8125 245.902344 76.144531 245.839844 C 77.980469 245.027344 79.730469 244.097656 82.078125 242.710938 C 85.359375 240.816406 88.582031 238.589844 91.894531 235.730469 C 93.371094 234.433594 95.207031 232.871094 96.652344 231.035156 C 97.980469 229.289062 99.214844 227.421875 100.148438 225.40625 C 100.929688 223.6875 101.65625 221.640625 102.226562 219.144531 C 102.648438 217.699219 102.769531 216.101562 102.980469 214.625 L 103.164062 213.363281 C 103.734375 209.359375 103.585938 205.144531 102.746094 200.503906 C 102.292969 198.398438 101.632812 196.261719 100.699219 193.761719 C 99.738281 191.472656 98.5625 189.152344 97.628906 187.40625 C 96.789062 185.78125 95.613281 184.214844 94.199219 182.078125 C 93.839844 181.59375 93.566406 181.234375 93.207031 180.75 C 92.9375 180.390625 92.664062 180.027344 92.394531 179.667969 C 91.492188 178.460938 90.4375 177.558594 89.683594 176.804688 C 88.269531 175.421875 86.734375 174.125 84.867188 172.890625 C 83.125 171.566406 81.015625 170.511719 79.121094 169.488281 C 78.214844 169.035156 77.222656 168.460938 76.109375 167.980469 C 75.296875 167.648438 74.484375 167.316406 73.761719 167.105469 L 73.25 166.925781 C 71.292969 166.324219 69.214844 165.808594 66.382812 165.296875 C 63.976562 164.84375 61.960938 164.664062 60.152344 164.511719 C 57.714844 164.269531 55.183594 164.660156 52.894531 164.871094 C 50.488281 165.171875 48.140625 165.804688 45.910156 166.34375 C 44.011719 166.828125 41.996094 167.398438 40.28125 168.121094 C 38.230469 168.902344 36.246094 170.015625 34.378906 171.039062 C 32.84375 172 31.183594 173.054688 29.289062 174.289062 C 27.359375 175.734375 25.613281 177.417969 24.230469 178.832031 C 23.023438 179.738281 21.96875 181.089844 20.765625 182.746094 Z M 20.765625 182.746094 "/></g></g></g><g clip-rule="nonzero" clip-path="url(#3ef0e299e4)"><g clip-rule="nonzero" clip-path="url(#6be4776fe3)"><g clip-rule="nonzero" clip-path="url(#1ddf37eafe)"><path style=" stroke:none;fill-rule:nonzero;fill:#cb6ce6;fill-opacity:1;" d="M 212.804688 331.152344 C 216.453125 334.210938 220.296875 336.441406 224.101562 337.457031 C 226.046875 338.03125 228.246094 338.445312 230.414062 338.527344 C 232.25 338.632812 234.261719 338.457031 236.066406 338.230469 C 237.328125 337.984375 238.589844 337.738281 239.726562 337.570312 C 240.523438 337.433594 241.324219 337.296875 242.121094 337.160156 L 243.128906 337.070312 C 244.597656 336.875 246.195312 336.597656 247.714844 336.195312 C 249.875 335.394531 251.957031 334.46875 253.910156 333.621094 C 255.734375 332.851562 257.402344 331.828125 259.402344 330.773438 C 259.789062 330.535156 260.300781 330.222656 260.683594 329.984375 C 263.507812 328.25 266.296875 326.179688 269.445312 323.539062 C 272.160156 321.339844 274.761719 318.675781 277.003906 315.710938 C 278.226562 314.25 279.371094 312.664062 280.179688 311.105469 C 281.117188 309.46875 281.816406 307.445312 282.234375 305.246094 C 282.570312 302.917969 283.011719 301.054688 283.121094 299.222656 C 283.113281 298.34375 283.230469 297.386719 283.222656 296.507812 C 283.242188 295.96875 283.261719 295.425781 283.28125 294.882812 C 283.292969 293.460938 283.382812 292.171875 283.136719 290.90625 C 283.015625 289.566406 282.742188 287.96875 282.257812 286.320312 C 281.882812 285.136719 281.511719 283.953125 281.007812 282.847656 C 280.976562 282.515625 280.742188 282.128906 280.710938 281.792969 C 280.070312 279.890625 279.304688 278.066406 278.140625 275.597656 C 276.554688 272.15625 274.632812 268.742188 272.089844 265.183594 C 270.933594 263.59375 269.542969 261.621094 267.847656 260.011719 C 266.230469 258.535156 264.488281 257.132812 262.5625 256.019531 C 260.925781 255.082031 258.953125 254.171875 256.519531 253.371094 C 255.117188 252.820312 253.539062 252.554688 252.089844 252.207031 L 250.847656 251.910156 C 246.914062 250.972656 242.703125 250.734375 238.007812 251.148438 C 235.867188 251.402344 233.679688 251.867188 231.105469 252.566406 C 228.738281 253.3125 226.320312 254.269531 224.496094 255.039062 C 222.800781 255.726562 221.132812 256.753906 218.871094 257.964844 C 218.359375 258.28125 217.976562 258.519531 217.460938 258.832031 C 217.078125 259.070312 216.691406 259.304688 216.308594 259.542969 C 215.027344 260.332031 214.03125 261.296875 213.210938 261.976562 C 211.703125 263.257812 210.269531 264.667969 208.871094 266.414062 C 207.390625 268.03125 206.148438 270.035156 204.953125 271.828125 C 204.417969 272.6875 203.757812 273.621094 203.175781 274.6875 C 202.773438 275.464844 202.367188 276.246094 202.089844 276.945312 L 201.863281 277.4375 C 201.085938 279.332031 200.382812 281.351562 199.613281 284.125 C 198.941406 286.480469 198.574219 288.472656 198.261719 290.257812 C 197.796875 292.664062 197.953125 295.21875 197.953125 297.515625 C 198.03125 299.941406 198.441406 302.339844 198.777344 304.609375 C 199.082031 306.542969 199.46875 308.601562 200.027344 310.378906 C 200.621094 312.488281 201.546875 314.570312 202.394531 316.523438 C 203.210938 318.140625 204.109375 319.886719 205.164062 321.890625 C 206.425781 323.941406 207.941406 325.835938 209.222656 327.34375 C 210.011719 328.625 211.265625 329.800781 212.804688 331.152344 Z M 212.804688 331.152344 "/></g></g></g></g></svg>